<svg width="193" height="219" viewBox="0 0 193 219" fill="none" xmlns="http://www.w3.org/2000/svg">
<path d="M84.0114 219H0.0625V0.818175H83.1591C105.602 0.818175 124.991 5.18608 141.327 13.9219C157.733 22.5866 170.375 35.0866 179.253 51.4219C188.202 67.6861 192.676 87.1818 192.676 109.909C192.676 132.636 188.237 152.168 179.359 168.503C170.482 184.767 157.911 197.267 141.646 206.003C125.382 214.668 106.17 219 84.0114 219ZM59.2955 168.716H81.8807C92.6761 168.716 101.874 166.976 109.473 163.496C117.143 160.016 122.967 154.014 126.945 145.491C130.993 136.969 133.017 125.108 133.017 109.909C133.017 94.7102 130.957 82.8494 126.838 74.3267C122.79 65.804 116.824 59.8025 108.94 56.3224C101.128 52.8423 91.5398 51.1023 80.1761 51.1023H59.2955V168.716Z" fill="url(#paint0_linear_1479_286)"/>
<defs>
<linearGradient id="paint0_linear_1479_286" x1="-18.0943" y1="-53.0216" x2="198.358" y2="-43.8654" gradientUnits="userSpaceOnUse">
<stop stop-color="#4153F3"/>
<stop offset="1" stop-color="#75D9A6"/>
</linearGradient>
</defs>
</svg>
